<svg width="800" height="953" viewBox="0 0 800 953" fill="none" xmlns="http://www.w3.org/2000/svg">
<g clip-path="url(#clip0_1_16)">
<path d="M108.845 488.217C110.44 492.234 113.81 495.281 117.968 496.461C164.438 509.673 202.273 498.642 224.816 487.947V662.855C224.816 700.168 255.172 730.522 292.483 730.522C307.374 730.522 321.149 725.677 332.335 717.496V732.335C332.336 769.644 362.692 800 400.003 800C437.314 800 467.67 769.644 467.67 732.333V717.496C478.858 725.677 492.629 730.522 507.52 730.522C544.832 730.522 575.187 700.166 575.187 662.855V487.95C597.73 498.642 635.576 509.67 682.035 496.461C686.186 495.281 689.552 492.232 691.149 488.222C692.746 484.211 692.388 479.681 690.183 475.97C689.618 475.02 633.83 379.509 633.83 245.237V233.832C633.83 104.896 528.934 -0.00156019 399.997 -0.00156019C271.06 -0.00156019 166.163 104.896 166.163 233.832V245.237C166.163 379.509 110.376 475.02 109.818 475.956C107.612 479.672 107.25 484.2 108.845 488.217ZM193.985 245.24V233.835C193.985 120.237 286.405 27.8171 400.003 27.8171C513.601 27.8171 606.021 120.237 606.021 233.835V245.24C606.021 355.211 640.549 439.055 657.372 473.376C616.801 479.295 586.741 463.7 575.192 456.32V406.333C575.192 398.652 568.967 392.425 561.284 392.425C553.601 392.425 547.376 398.652 547.376 406.333V662.855C547.376 684.83 529.498 702.707 507.525 702.707C485.551 702.707 467.673 684.829 467.673 662.855V401.631C467.673 393.95 461.448 387.723 453.765 387.723C446.083 387.723 439.858 393.95 439.858 401.631V732.333C439.858 754.308 421.98 772.184 400.006 772.184C378.031 772.184 360.156 754.306 360.156 732.333V401.631C360.156 393.95 353.931 387.723 346.249 387.723C338.566 387.723 332.341 393.95 332.341 401.631V662.855C332.341 684.83 314.463 702.707 292.489 702.707C270.515 702.707 252.638 684.829 252.638 662.855V406.331C252.638 398.65 246.413 392.423 238.73 392.423C231.048 392.423 224.823 398.65 224.823 406.331V456.294C213.266 463.617 183.06 479.208 142.646 473.362C159.465 439.037 193.985 355.202 193.985 245.24Z" fill="#2952A3"/>
<path d="M256.429 256.155C294.78 294.504 345.769 315.625 400.003 315.625C454.237 315.625 505.228 294.507 543.578 256.155C549.009 250.724 549.009 241.919 543.578 236.488C505.228 198.138 454.237 177.018 400.003 177.018C345.769 177.018 294.782 198.137 256.429 236.488C253.821 239.096 252.357 242.633 252.357 246.322C252.357 250.011 253.822 253.549 256.429 256.155ZM400.003 204.832C441.944 204.832 481.634 219.466 513.243 246.321C481.634 273.174 441.944 287.81 400.003 287.81C358.064 287.81 318.372 273.175 286.765 246.321C318.372 219.468 358.063 204.832 400.003 204.832Z" fill="#84A8F0"/>
<path d="M400.002 280.729C418.975 280.729 434.411 265.294 434.411 246.321C434.411 227.349 418.975 211.913 400.002 211.913C381.028 211.913 365.592 227.349 365.592 246.321C365.592 265.293 381.028 280.729 400.002 280.729ZM400.002 236.222C405.569 236.222 410.097 240.751 410.097 246.319C410.097 251.888 405.569 256.416 400.002 256.416C394.434 256.416 389.906 251.886 389.906 246.319C389.906 240.754 394.434 236.222 400.002 236.222Z" fill="#BFC8D9"/>
</g>
<path d="M175.398 926.332C169.404 926.332 163.817 925.37 158.637 923.446C153.531 921.448 149.091 918.636 145.317 915.01C141.543 911.384 138.583 907.129 136.437 902.245C134.365 897.361 133.329 891.996 133.329 886.15C133.329 880.304 134.365 874.939 136.437 870.055C138.583 865.171 141.543 860.916 145.317 857.29C149.165 853.664 153.642 850.889 158.748 848.965C163.854 846.967 169.441 845.968 175.509 845.968C182.243 845.968 188.311 847.152 193.713 849.52C199.189 851.814 203.777 855.218 207.477 859.732L195.933 870.388C193.269 867.354 190.309 865.097 187.053 863.617C183.797 862.063 180.245 861.286 176.397 861.286C172.771 861.286 169.441 861.878 166.407 863.062C163.373 864.246 160.746 865.948 158.526 868.168C156.306 870.388 154.567 873.015 153.309 876.049C152.125 879.083 151.533 882.45 151.533 886.15C151.533 889.85 152.125 893.217 153.309 896.251C154.567 899.285 156.306 901.912 158.526 904.132C160.746 906.352 163.373 908.054 166.407 909.238C169.441 910.422 172.771 911.014 176.397 911.014C180.245 911.014 183.797 910.274 187.053 908.794C190.309 907.24 193.269 904.909 195.933 901.801L207.477 912.457C203.777 916.971 199.189 920.412 193.713 922.78C188.311 925.148 182.206 926.332 175.398 926.332ZM207.999 925L242.631 847.3H260.391L295.134 925H276.264L247.848 856.402H254.952L226.425 925H207.999ZM225.315 908.35L230.088 894.697H270.048L274.932 908.35H225.315ZM303.195 925V847.3H341.157C350.925 847.3 358.251 849.15 363.135 852.85C368.093 856.55 370.572 861.434 370.572 867.502C370.572 871.572 369.573 875.124 367.575 878.158C365.577 881.118 362.839 883.412 359.361 885.04C355.883 886.668 351.887 887.482 347.373 887.482L349.482 882.931C354.366 882.931 358.695 883.745 362.469 885.373C366.243 886.927 369.166 889.258 371.238 892.366C373.384 895.474 374.457 899.285 374.457 903.799C374.457 910.459 371.83 915.676 366.576 919.45C361.322 923.15 353.589 925 343.377 925H303.195ZM321.066 911.458H342.045C346.707 911.458 350.222 910.718 352.59 909.238C355.032 907.684 356.253 905.242 356.253 901.912C356.253 898.656 355.032 896.251 352.59 894.697C350.222 893.069 346.707 892.255 342.045 892.255H319.734V879.157H338.937C343.303 879.157 346.633 878.417 348.927 876.937C351.295 875.383 352.479 873.052 352.479 869.944C352.479 866.91 351.295 864.653 348.927 863.173C346.633 861.619 343.303 860.842 338.937 860.842H321.066V911.458ZM422.592 926.332C411.566 926.332 402.945 923.261 396.729 917.119C390.513 910.977 387.405 902.208 387.405 890.812V847.3H405.387V890.146C405.387 897.546 406.904 902.874 409.938 906.13C412.972 909.386 417.227 911.014 422.703 911.014C428.179 911.014 432.434 909.386 435.468 906.13C438.502 902.874 440.019 897.546 440.019 890.146V847.3H457.779V890.812C457.779 902.208 454.671 910.977 448.455 917.119C442.239 923.261 433.618 926.332 422.592 926.332ZM492.088 878.602H529.495V892.588H492.088V878.602ZM493.42 910.57H535.711V925H475.549V847.3H534.268V861.73H493.42V910.57ZM566.114 925V861.952H541.25V847.3H608.96V861.952H584.096V925H566.114ZM604.521 925L639.153 847.3H656.913L691.656 925H672.786L644.37 856.402H651.474L622.947 925H604.521ZM621.837 908.35L626.61 894.697H666.57L671.454 908.35H621.837Z" fill="#BFC8D9"/>
<defs>
<clipPath id="clip0_1_16">
<rect width="800" height="800" fill="white" transform="translate(800 800) rotate(180)"/>
</clipPath>
</defs>
</svg>
